<svg version="1.0" xmlns="http://www.w3.org/2000/svg" width="512.000000pt" height="512.000000pt" viewBox="0 0 512.000000 512.000000" preserveAspectRatio="xMidYMid meet"><g transform="translate(0.000000,512.000000) scale(0.100000,-0.100000)" fill="#000000" stroke="none"><path d="M717 4754 c-99 -24 -214 -90 -294 -170 -57 -57 -80 -90 -116 -165 -53 -111 -67 -169 -67 -287 0 -191 94 -387 293 -612 138 -157 442 -404 659 -535 75 -46 88 -50 143 -50 56 0 69 4 141 49 210 129 515 372 640 511 154 171 263 351 299 491 19 78 19 220 0 303 -52 219 -247 414 -466 466 -194 45 -415 -7 -558 -132 -37 -32 -57 -44 -66 -37 -7 5 -37 29 -66 53 -63 51 -149 94 -234 116 -73 19 -229 18 -308 -1z m274 -356 c91 -38 153 -128 168 -244 14 -110 50 -161 131 -185 71 -21 155 13 193 79 10 17 23 63 28 102 10 78 36 139 83 188 121 129 344 108 441 -42 63 -97 66 -206 7 -321 -84 -167 -321 -403 -596 -595 -49 -34 -95 -64 -103 -67 -30 -12 -331 218 -487 372 -203 201 -291 364 -266 497 23 119 109 211 219 234 66 14 118 9 182 -18z"/> <path d="M1978 2980 c-113 -19 -226 -95 -288 -192 -55 -84 -73 -163 -68 -289 3 -95 7 -111 39 -179 47 -97 112 -162 209 -209 l75 -36 283 -3 c155 -2 282 -7 282 -12 0 -16 -114 -111 -163 -136 -27 -14 -79 -32 -114 -39 -64 -14 -80 -12 -832 96 -810 115 -885 122 -1023 94 -98 -20 -225 -84 -284 -142 -142 -142 -115 -357 58 -477 55 -38 1587 -699 1700 -734 98 -31 235 -45 360 -39 99 4 159 17 498 102 436 109 607 163 847 267 185 80 235 88 311 51 24 -12 150 -141 362 -372 188 -205 338 -360 355 -368 40 -16 108 -16 149 1 80 33 120 150 80 229 -21 39 -610 687 -682 750 -95 82 -225 127 -366 127 -99 0 -164 -19 -356 -103 -205 -90 -341 -132 -761 -237 -363 -91 -408 -100 -492 -100 -51 0 -122 7 -159 14 -72 16 -1600 665 -1592 677 2 4 35 12 72 19 66 11 105 6 848 -100 877 -126 900 -128 1057 -76 160 53 236 106 418 293 146 149 180 206 181 299 1 99 -44 174 -136 222 l-51 27 -387 5 -386 5 -25 23 c-50 47 -43 158 13 187 44 23 1816 23 1905 0 147 -38 159 -48 565 -450 400 -397 408 -403 492 -392 102 14 170 123 138 223 -10 31 -89 116 -374 402 -198 200 -385 382 -415 404 -73 55 -188 111 -296 145 l-90 28 -955 1 c-525 1 -976 -2 -1002 -6z"/></g></svg>
